<?xml version="1.0" encoding="UTF-8"?>
<svg width="343px" height="213px" viewBox="0 0 343 213" version="1.1" xmlns="http://www.w3.org/2000/svg" xmlns:xlink="http://www.w3.org/1999/xlink">
    <!-- Generator: Sketch 52.5 (67469) - http://www.bohemiancoding.com/sketch -->
    <title>api demo icon</title>
    <desc>Created with Sketch.</desc>
    <defs>
        <polygon id="path-1" points="0 0.548888889 21.4012946 0.548888889 21.4012946 15.342963 0 15.342963"></polygon>
    </defs>
    <g id="api-demo-icon" stroke="none" stroke-width="1" fill="none" fill-rule="evenodd">
        <text id="(20,-20)" font-family="PingFangSC-Regular, PingFang SC" font-size="7" font-weight="normal" fill="#BD10E0">
            <tspan x="13.8760859" y="12">(</tspan>
            <tspan x="16.2070859" y="12" font-family="ArialMT, Arial">20, 20</tspan>
            <tspan x="35.669" y="12">)</tspan>
        </text>
        <text id="(20,-60)" font-family="PingFangSC-Regular, PingFang SC" font-size="7" font-weight="normal" fill="#BD10E0">
            <tspan x="13.8760859" y="52">(</tspan>
            <tspan x="16.2070859" y="52" font-family="ArialMT, Arial">20, 60</tspan>
            <tspan x="35.669" y="52">)</tspan>
        </text>
        <text id="(60,-60)" font-family="PingFangSC-Regular, PingFang SC" font-size="7" font-weight="normal" fill="#BD10E0">
            <tspan x="53.8760859" y="52">(</tspan>
            <tspan x="56.2070859" y="52" font-family="ArialMT, Arial">60, 60</tspan>
            <tspan x="75.669" y="52">)</tspan>
        </text>
        <text id="(100,-60)" font-family="PingFangSC-Regular, PingFang SC" font-size="7" font-weight="normal" fill="#BD10E0">
            <tspan x="89.9830195" y="52">(</tspan>
            <tspan x="92.3140195" y="52" font-family="ArialMT, Arial">100, 60</tspan>
            <tspan x="115.669" y="52">)</tspan>
        </text>
        <text id="(140,-60)" font-family="PingFangSC-Regular, PingFang SC" font-size="7" font-weight="normal" fill="#BD10E0">
            <tspan x="129.98302" y="52">(</tspan>
            <tspan x="132.31402" y="52" font-family="ArialMT, Arial">140, 60</tspan>
            <tspan x="155.669" y="52">)</tspan>
        </text>
        <text id="(180,-60)" font-family="PingFangSC-Regular, PingFang SC" font-size="7" font-weight="normal" fill="#BD10E0">
            <tspan x="169.98302" y="52">(</tspan>
            <tspan x="172.31402" y="52" font-family="ArialMT, Arial">180, 60</tspan>
            <tspan x="195.669" y="52">)</tspan>
        </text>
        <text id="(220,-60)" font-family="PingFangSC-Regular, PingFang SC" font-size="7" font-weight="normal" fill="#BD10E0">
            <tspan x="209.98302" y="52">(</tspan>
            <tspan x="212.31402" y="52" font-family="ArialMT, Arial">220, 60</tspan>
            <tspan x="235.669" y="52">)</tspan>
        </text>
        <text id="(60,-100)" font-family="PingFangSC-Regular, PingFang SC" font-size="7" font-weight="normal" fill="#BD10E0">
            <tspan x="49.9830195" y="92">(</tspan>
            <tspan x="52.3140195" y="92" font-family="ArialMT, Arial">60, 100</tspan>
            <tspan x="75.669" y="92">)</tspan>
        </text>
        <text id="(100,-100)" font-family="PingFangSC-Regular, PingFang SC" font-size="7" font-weight="normal" fill="#BD10E0">
            <tspan x="86.0899531" y="92">(</tspan>
            <tspan x="88.4209531" y="92" font-family="ArialMT, Arial">100, 100</tspan>
            <tspan x="115.669" y="92">)</tspan>
        </text>
        <text id="(140,-100)" font-family="PingFangSC-Regular, PingFang SC" font-size="7" font-weight="normal" fill="#BD10E0">
            <tspan x="126.089953" y="92">(</tspan>
            <tspan x="128.420953" y="92" font-family="ArialMT, Arial">140, 100</tspan>
            <tspan x="155.669" y="92">)</tspan>
        </text>
        <text id="(20,-100)" font-family="PingFangSC-Regular, PingFang SC" font-size="7" font-weight="normal" fill="#BD10E0">
            <tspan x="9.98301953" y="92">(</tspan>
            <tspan x="12.3140195" y="92" font-family="ArialMT, Arial">20, 100</tspan>
            <tspan x="35.669" y="92">)</tspan>
        </text>
        <text id="(20,-140)" font-family="PingFangSC-Regular, PingFang SC" font-size="7" font-weight="normal" fill="#BD10E0">
            <tspan x="9.98301953" y="132">(</tspan>
            <tspan x="12.3140195" y="132" font-family="ArialMT, Arial">20, 140</tspan>
            <tspan x="35.669" y="132">)</tspan>
        </text>
        <text id="(20,-180)" font-family="PingFangSC-Regular, PingFang SC" font-size="7" font-weight="normal" fill="#BD10E0">
            <tspan x="9.98301953" y="172">(</tspan>
            <tspan x="12.3140195" y="172" font-family="ArialMT, Arial">20, 180</tspan>
            <tspan x="35.669" y="172">)</tspan>
        </text>
        <text id="(60,-180)" font-family="PingFangSC-Regular, PingFang SC" font-size="7" font-weight="normal" fill="#BD10E0">
            <tspan x="49.9830195" y="172">(</tspan>
            <tspan x="52.3140195" y="172" font-family="ArialMT, Arial">60, 180</tspan>
            <tspan x="75.669" y="172">)</tspan>
        </text>
        <g id="metric" transform="translate(60.000000, 180.000000)">
            <g id="Group-3-Copy-3" stroke-width="1" transform="translate(4.000000, 4.000000)" stroke="#E99D41">
                <g id="metric-copy">
                    <rect id="Rectangle-433" fill="#F7ECDE" x="-0.5" y="-0.5" width="6" height="12"></rect>
                    <path d="M1,2.5 L5,2.5" id="Line"></path>
                    <path d="M1,8.5 L5,8.5" id="Line-Copy-18"></path>
                    <path d="M2,5.5 L5,5.5" id="Line-Copy-17"></path>
                    <rect id="Rectangle-433-Copy" fill="#F7ECDE" x="5.5" y="2.5" width="3" height="9"></rect>
                    <rect id="Rectangle-433-Copy-2" fill="#F7ECDE" x="8.5" y="5.5" width="2" height="6"></rect>
                </g>
            </g>
            <rect id="Rectangle-2961-Copy-12" fill="#00FFA0" opacity="0" x="0" y="0" width="18" height="18"></rect>
        </g>
        <text id="(60,-140)" font-family="PingFangSC-Regular, PingFang SC" font-size="7" font-weight="normal" fill="#BD10E0">
            <tspan x="49.9830195" y="132">(</tspan>
            <tspan x="52.3140195" y="132" font-family="ArialMT, Arial">60, 140</tspan>
            <tspan x="75.669" y="132">)</tspan>
        </text>
        <text id="(100,-140)" font-family="PingFangSC-Regular, PingFang SC" font-size="7" font-weight="normal" fill="#BD10E0">
            <tspan x="86.0899531" y="132">(</tspan>
            <tspan x="88.4209531" y="132" font-family="ArialMT, Arial">100, 140</tspan>
            <tspan x="115.669" y="132">)</tspan>
        </text>
        <text id="(140,-140)" font-family="PingFangSC-Regular, PingFang SC" font-size="7" font-weight="normal" fill="#BD10E0">
            <tspan x="126.089953" y="132">(</tspan>
            <tspan x="128.420953" y="132" font-family="ArialMT, Arial">140, 140</tspan>
            <tspan x="155.669" y="132">)</tspan>
        </text>
        <g id="checkbox-select" transform="translate(20.000000, 60.000000)" fill-rule="nonzero">
            <rect id="Rectangle-201" x="0" y="0" width="18" height="18"></rect>
            <path d="M3,5.0085302 C3,3.8992496 3.90195036,3 5.0085302,3 L12.9914698,3 C14.1007504,3 15,3.90195036 15,5.0085302 L15,12.9914698 C15,14.1007504 14.0980496,15 12.9914698,15 L5.0085302,15 C3.8992496,15 3,14.0980496 3,12.9914698 L3,5.0085302 Z M5.92191312,8.29721807 L5.29721807,9.07808688 L8.56124161,11.6893057 L12.7055407,6.95296396 L11.952964,6.29445935 L8.43875839,10.3106943 L5.92191312,8.29721807 Z" id="Combined-Shape" fill="#3B92ED"></path>
        </g>
        <g id="logo" transform="translate(20.000000, 20.000000)">
            <g id="Group-12">
                <g id="Group-35" transform="translate(0.000000, 0.000000)">
                    <mask id="mask-2" fill="white">
                        <use xlink:href="#path-1"></use>
                    </mask>
                    <g id="Clip-33"></g>
                    <path d="M12.2833999,9.90518519 C12.2206655,8.19851852 12.157931,6.13259259 12.157931,4.06740741 L12.0944586,4.06740741 C11.6538415,5.88 11.064876,7.9037037 10.5194555,9.56740741 L8.79831821,15.1103704 L6.29927405,15.1103704 L4.78700544,9.60962963 C4.32498488,7.94592593 3.84229885,5.92222222 3.50648518,4.06740741 L3.46441621,4.06740741 C3.38101633,5.98592593 3.31754386,8.17703704 3.21274047,9.94740741 L2.96106473,15.342963 L0,15.342963 L0.902637629,1.13851852 L5.16562613,1.13851852 L6.55168784,5.88 C6.99156685,7.5237037 7.43366001,9.29481481 7.74807018,10.9585185 L7.8108046,10.9585185 C8.20935269,9.31481481 8.69277677,7.43925926 9.15479734,5.85925926 L10.6655898,1.13851852 L14.8459165,1.13851852 L15.6216092,15.342963 L12.4937447,15.342963 L12.2833999,9.90518519" id="Fill-32" fill="#FFFFFE" mask="url(#mask-2)"></path>
                    <path d="M18.1051543,15.342963 L21.2964912,15.342963 L21.2964912,5.03777778 L18.1051543,5.03777778 L18.1051543,15.342963 Z M21.4012946,2.17037037 C21.4012946,3.0562963 20.7296673,3.77259259 19.6801573,3.77259259 C18.6727163,3.77259259 18.0003509,3.0562963 18.0217544,2.17037037 C18.0003509,1.2437037 18.6727163,0.548148148 19.7008227,0.548148148 C20.7296673,0.548148148 21.3806292,1.2437037 21.4012946,2.17037037 Z" id="Fill-34" fill="#FFFFFE" mask="url(#mask-2)"></path>
                </g>
                <path d="M31.5664852,15.0896296 C30.9996612,15.342963 29.9287477,15.5533333 28.7109619,15.5533333 C25.39268,15.5533333 23.2715185,13.5296296 23.2715185,10.2844444 C23.2715185,7.27111111 25.3292075,4.80592593 29.1508409,4.80592593 C29.9907441,4.80592593 30.9155233,4.95333333 31.5871506,5.20592593 L31.0830611,7.58666667 C30.7044404,7.41851852 30.1376165,7.27111111 29.2977132,7.27111111 C27.6186449,7.27111111 26.5263279,8.47259259 26.5469933,10.1585185 C26.5469933,12.0548148 27.8075862,13.0451852 29.3611857,13.0451852 C30.116951,13.0451852 30.7044404,12.9185185 31.1871264,12.7296296 L31.5664852,15.0896296" id="Fill-36" fill="#FFFFFE"></path>
                <path d="M33.3326437,8.43037037 C33.3326437,6.91259259 33.2905747,5.92222222 33.2485057,5.03777778 L35.9999637,5.03777778 L36.104029,6.93407407 L36.1874289,6.93407407 C36.712922,5.43703704 37.9727768,4.80592593 38.9595523,4.80592593 C39.2540351,4.80592593 39.4001694,4.80592593 39.6311797,4.84740741 L39.6311797,7.86148148 C39.4001694,7.81925926 39.1270901,7.77703704 38.770611,7.77703704 C37.5941561,7.77703704 36.7970599,8.40888889 36.5867151,9.39925926 C36.5446461,9.60962963 36.5232426,9.8637037 36.5232426,10.1162963 L36.5232426,15.342963 L33.3326437,15.342963 L33.3326437,8.43037037" id="Fill-37" fill="#FFFFFE"></path>
                <path d="M43.8543134,10.1785185 C43.8543134,11.9496296 44.5894132,13.277037 45.9533333,13.277037 C47.1932607,13.277037 47.9903569,12.0340741 47.9903569,10.1785185 C47.9903569,8.64074074 47.4028675,7.08148148 45.9533333,7.08148148 C44.4211373,7.08148148 43.8543134,8.66148148 43.8543134,10.1785185 Z M51.2879734,10.0740741 C51.2879734,13.8459259 48.6206534,15.5740741 45.8699335,15.5740741 C42.8667998,15.5740741 40.557435,13.5933333 40.557435,10.262963 C40.557435,6.93407407 42.742069,4.80592593 46.0374713,4.80592593 C49.1874773,4.80592593 51.2879734,6.9762963 51.2879734,10.0740741 Z" id="Fill-38" fill="#FFFFFE"></path>
                <path d="M53.4748215,12.0340741 C54.3353902,12.477037 55.6579794,12.9185185 57.0226376,12.9185185 C58.4928373,12.9185185 59.2707441,12.3074074 59.2707441,11.3807407 C59.2707441,10.4955556 58.5983787,9.98962963 56.8971688,9.37851852 C54.545735,8.5562963 53.012801,7.25037037 53.012801,5.18444444 C53.012801,2.76148148 55.0291591,0.906666667 58.3666304,0.906666667 C59.9622989,0.906666667 61.1394918,1.2437037 61.978657,1.62296296 L61.2642226,4.21481481 C60.6973987,3.94148148 59.6899577,3.54074074 58.304634,3.54074074 C56.9185723,3.54074074 56.2462069,4.17259259 56.2462069,4.91111111 C56.2462069,5.81703704 57.0447792,6.21703704 58.871458,6.91259259 C61.3697641,7.84 62.5454809,9.14666667 62.5454809,11.1481481 C62.5454809,13.5296296 60.7188022,15.5533333 56.8344344,15.5533333 C55.2173624,15.5533333 53.6209558,15.1318519 52.8231216,14.6896296 L53.4748215,12.0340741" id="Fill-39" fill="#FFFFFE"></path>
                <path d="M68.0712765,2.08666667 L68.0712765,5.03777778 L70.3607139,5.03777778 L70.3607139,7.39703704 L68.0712765,7.39703704 L68.0712765,11.1281481 C68.0712765,12.3711111 68.3657592,12.94 69.3311313,12.94 C69.7296794,12.94 70.0448276,12.8977778 70.2765759,12.8555556 L70.2972414,15.2792593 C69.8772898,15.4474074 69.1215245,15.5533333 68.2181488,15.5533333 C67.1893043,15.5533333 66.3287356,15.1948148 65.8246461,14.6674074 C65.2364186,14.0562963 64.9426739,13.0659259 64.9426739,11.6118519 L64.9426739,7.39703704 L63.5787538,7.39703704 L63.5787538,5.03777778 L64.9426739,5.03777778 L64.9426739,2.80296296 L68.0712765,2.08666667" id="Fill-40" fill="#FFFFFE"></path>
                <path d="M72.2102722,8.43037037 C72.2102722,6.91259259 72.1674652,5.92222222 72.1261343,5.03777778 L74.8768542,5.03777778 L74.9816576,6.93407407 L75.0657955,6.93407407 C75.5905505,5.43703704 76.8511434,4.80592593 77.8371809,4.80592593 C78.1309256,4.80592593 78.2777979,4.80592593 78.5088082,4.84740741 L78.5088082,7.86148148 C78.2777979,7.81925926 78.0054567,7.77703704 77.6482396,7.77703704 C76.4725227,7.77703704 75.6739504,8.40888889 75.4650817,9.39925926 C75.4222747,9.60962963 75.4016092,9.8637037 75.4016092,10.1162963 L75.4016092,15.342963 L72.2102722,15.342963 L72.2102722,8.43037037" id="Fill-41" fill="#FFFFFE"></path>
                <path d="M85.4199274,10.4748148 C83.740859,10.4533333 82.4381972,10.8540741 82.4381972,12.0962963 C82.4381972,12.9185185 82.9843557,13.3192593 83.697314,13.3192593 C84.4958863,13.3192593 85.1468482,12.7918519 85.357193,12.1385185 C85.3985239,11.9703704 85.4199274,11.7814815 85.4199274,11.5911111 L85.4199274,10.4748148 Z M85.79781,15.342963 L85.6096068,14.3096296 L85.5461343,14.3096296 C84.874507,15.1318519 83.8242589,15.5740741 82.6064731,15.5740741 C80.5273805,15.5740741 79.2881912,14.0562963 79.2881912,12.4125926 C79.2881912,9.73703704 81.6824319,8.45111111 85.314386,8.47259259 L85.314386,8.32518519 C85.314386,7.77703704 85.0206413,6.99777778 83.4456382,6.99777778 C82.3968663,6.99777778 81.2838838,7.35481481 80.6115185,7.77703704 L80.023291,5.71185185 C80.7377253,5.31111111 82.1437145,4.80592593 84.0132002,4.80592593 C87.4355475,4.80592593 88.5286025,6.82814815 88.5286025,9.25185185 L88.5286025,12.8340741 C88.5286025,13.8251852 88.5691954,14.7733333 88.6747368,15.342963 L85.79781,15.342963 Z" id="Fill-42" fill="#FFFFFE"></path>
                <path d="M94.4522081,2.08666667 L94.4522081,5.03777778 L96.7409074,5.03777778 L96.7409074,7.39703704 L94.4522081,7.39703704 L94.4522081,11.1281481 C94.4522081,12.3711111 94.7466909,12.94 95.712801,12.94 C96.1120871,12.94 96.4264973,12.8977778 96.6575076,12.8555556 L96.6789111,15.2792593 C96.2582214,15.4474074 95.5017181,15.5533333 94.5990805,15.5533333 C93.5702359,15.5533333 92.7096673,15.1948148 92.2063158,14.6674074 C91.6173503,14.0562963 91.3236056,13.0659259 91.3236056,11.6118519 L91.3236056,7.39703704 L89.9589474,7.39703704 L89.9589474,5.03777778 L91.3236056,5.03777778 L91.3236056,2.80296296 L94.4522081,2.08666667" id="Fill-43" fill="#FFFFFE"></path>
                <path d="M104.701537,9.02 C104.701537,8.24074074 104.365723,6.93407407 102.895523,6.93407407 C101.552269,6.93407407 101.00611,8.1562963 100.921972,9.02 L104.701537,9.02 Z M100.943376,11.2118519 C101.048917,12.5392593 102.350103,13.1718519 103.840968,13.1718519 C104.932547,13.1718519 105.814519,13.0244444 106.675826,12.7503704 L107.095777,14.9207407 C106.045529,15.342963 104.764271,15.5533333 103.378209,15.5533333 C99.8931276,15.5533333 97.898173,13.5296296 97.898173,10.3059259 C97.898173,7.69259259 99.5159831,4.80592593 103.085203,4.80592593 C106.402747,4.80592593 107.662601,7.39703704 107.662601,9.94740741 C107.662601,10.4955556 107.599129,10.98 107.55706,11.2118519 L100.943376,11.2118519 Z" id="Fill-44" fill="#FFFFFE"></path>
                <g id="Group-48" transform="translate(108.493648, 4.444444)" fill="#FFFFFE">
                    <path d="M7.61300665,4.78666667 C7.61300665,4.57555556 7.59160315,4.36518519 7.55027223,4.1962963 C7.31926195,3.35333333 6.70963097,2.78444444 5.82839685,2.78444444 C4.67260738,2.78444444 3.72863884,3.83777778 3.72863884,5.71407407 C3.72863884,7.25259259 4.48440411,8.45333333 5.82839685,8.45333333 C6.64689655,8.45333333 7.29785844,7.90592593 7.50746521,7.14666667 C7.59160315,6.91481481 7.61300665,6.57777778 7.61300665,6.3037037 L7.61300665,4.78666667 Z M10.8884815,0.593333333 C10.8464126,1.24666667 10.8043436,2.11037037 10.8043436,3.64814815 L10.8043436,9.40148148 C10.8043436,11.382963 10.4057955,13.0051852 9.2507441,14.0385185 C8.11635814,15.0066667 6.58416213,15.302963 5.07189353,15.302963 C3.72863884,15.302963 2.29977011,15.0288889 1.37646703,14.5014815 L2.00602541,12.0785185 C2.65772535,12.4577778 3.79137326,12.8585185 4.9877556,12.8585185 C6.50076225,12.8585185 7.65507562,12.0362963 7.65507562,10.1392593 L7.65507562,9.46518519 L7.61300665,9.46518519 C7.00411373,10.3288889 6.01733817,10.8140741 4.84162129,10.8140741 C2.29977011,10.8140741 0.494494858,8.74814815 0.494494858,5.77703704 C0.494494858,2.46814815 2.63558379,0.361481481 5.15529341,0.361481481 C6.56275862,0.361481481 7.44473079,0.971851852 7.97022384,1.81555556 L8.01155475,1.81555556 L8.11635814,0.593333333 L10.8884815,0.593333333 Z" id="Fill-45"></path>
                    <path d="M15.7625771,0.593333333 L17.2955112,5.65037037 C17.4637871,6.26148148 17.6741319,7.02074074 17.8003388,7.56814815 L17.8630732,7.56814815 C18.0099456,7.02074074 18.1774834,6.24074074 18.3250938,5.65037037 L19.5842105,0.593333333 L23.0065578,0.593333333 L20.6137931,7.37925926 C19.1443315,11.4674074 18.157556,13.1103704 17.0017665,14.1437037 C15.8895221,15.1133333 14.7138052,15.4496296 13.915971,15.5555556 L13.2436056,12.8362963 C13.6414156,12.7740741 14.1462432,12.5837037 14.6296673,12.2888889 C15.1123533,12.0362963 15.6378463,11.5303704 15.9529946,11.002963 C16.0570599,10.8555556 16.1205324,10.6874074 16.1205324,10.54 C16.1205324,10.4340741 16.0991289,10.2659259 15.97366,10.0125926 L12.214761,0.593333333 L15.7625771,0.593333333" id="Fill-47"></path>
                </g>
                <path d="M135.976491,4.34222222 L136.270974,4.34222222 C136.648857,4.34222222 136.900532,4.19407407 136.900532,3.94148148 C136.900532,3.66740741 136.67026,3.51925926 136.312305,3.51925926 C136.187574,3.51925926 136.060629,3.54074074 135.976491,3.54074074 L135.976491,4.34222222 Z M135.934422,6.26 L134.905578,6.26 L134.905578,2.90888889 C135.137326,2.86592593 135.682747,2.80296296 136.375777,2.80296296 C137.130805,2.80296296 137.467356,2.90888889 137.71977,3.0562963 C137.929377,3.2037037 138.076987,3.45703704 138.076987,3.79333333 C138.076987,4.13037037 137.761101,4.42592593 137.299819,4.55259259 L137.299819,4.59481481 C137.677701,4.72148148 137.887308,4.97407407 137.992849,5.45851852 C138.096915,5.9437037 138.160387,6.13259259 138.22386,6.26 L137.068808,6.26 C136.963267,6.13259259 136.900532,5.83777778 136.837798,5.54296296 C136.774325,5.20592593 136.606788,5.03777778 136.270974,5.03777778 L135.934422,5.03777778 L135.934422,6.26 Z M133.77193,4.55259259 C133.77193,6.07037037 134.884912,7.27111111 136.396443,7.27111111 C137.908711,7.27111111 139.020956,6.07037037 139.020956,4.53111111 C139.020956,3.03555556 137.908711,1.81259259 136.375777,1.81259259 C134.884912,1.81259259 133.77193,3.03555556 133.77193,4.55259259 Z M140.113273,4.53111111 C140.113273,6.55481481 138.475535,8.17703704 136.396443,8.17703704 C134.318088,8.17703704 132.658947,6.55481481 132.658947,4.53111111 C132.658947,2.52888889 134.318088,0.906666667 136.396443,0.906666667 C138.475535,0.906666667 140.113273,2.52888889 140.113273,4.53111111 Z" id="Fill-49" fill="#FFFFFE"></path>
            </g>
            <path d="M145.666667,16.1541667 L145.666667,4.51666667 C146.436667,4.35916667 147.539167,4.27166667 148.589167,4.27166667 C150.216667,4.27166667 151.266667,4.56916667 152.001667,5.23416667 C152.596667,5.75916667 152.929167,6.56416667 152.929167,7.47416667 C152.929167,9.03166667 151.949167,10.0641667 150.706667,10.4841667 L150.706667,10.5366667 C151.616667,10.8516667 152.159167,11.6916667 152.439167,12.9166667 C152.824167,14.5616667 153.104167,15.6991667 153.349167,16.1541667 L151.774167,16.1541667 C151.581667,15.8216667 151.319167,14.8066667 150.986667,13.3366667 C150.636667,11.7091667 150.006667,11.0966667 148.624167,11.0441667 L147.189167,11.0441667 L147.189167,16.1541667 L145.666667,16.1541667 Z M147.189167,5.58416667 L147.189167,9.88916667 L148.746667,9.88916667 C150.374167,9.88916667 151.406667,8.99666667 151.406667,7.64916667 C151.406667,6.12666667 150.304167,5.46166667 148.694167,5.44416667 C147.959167,5.44416667 147.434167,5.51416667 147.189167,5.58416667 Z M161.189167,9.36416667 L161.189167,10.6241667 L156.604167,10.6241667 L156.604167,14.8766667 L161.714167,14.8766667 L161.714167,16.1541667 L155.081667,16.1541667 L155.081667,4.35916667 L161.451667,4.35916667 L161.451667,5.63666667 L156.604167,5.63666667 L156.604167,9.36416667 L161.189167,9.36416667 Z M163.096667,15.5766667 L163.481667,14.2991667 C164.164167,14.7191667 165.161667,15.0691667 166.211667,15.0691667 C167.769167,15.0691667 168.679167,14.2466667 168.679167,13.0566667 C168.679167,11.9541667 168.049167,11.3241667 166.456667,10.7116667 C164.531667,10.0291667 163.341667,9.03166667 163.341667,7.36916667 C163.341667,5.53166667 164.864167,4.16666667 167.156667,4.16666667 C168.364167,4.16666667 169.239167,4.44666667 169.764167,4.74416667 L169.344167,5.98666667 C168.959167,5.77666667 168.171667,5.42666667 167.104167,5.42666667 C165.494167,5.42666667 164.881667,6.38916667 164.881667,7.19416667 C164.881667,8.29666667 165.599167,8.83916667 167.226667,9.46916667 C169.221667,10.2391667 170.236667,11.2016667 170.236667,12.9341667 C170.236667,14.7541667 168.889167,16.3291667 166.106667,16.3291667 C164.969167,16.3291667 163.726667,15.9966667 163.096667,15.5766667 Z M174.559167,16.1541667 L174.559167,5.65416667 L170.971667,5.65416667 L170.971667,4.35916667 L179.704167,4.35916667 L179.704167,5.65416667 L176.099167,5.65416667 L176.099167,16.1541667 L174.559167,16.1541667 Z M190.816667,12.4441667 L186.634167,12.4441667 L185.409167,16.1541667 L183.834167,16.1541667 L187.841667,4.35916667 L189.679167,4.35916667 L193.704167,16.1541667 L192.076667,16.1541667 L190.816667,12.4441667 Z M186.949167,11.2541667 L190.501667,11.2541667 L189.346667,7.85916667 C189.084167,7.08916667 188.909167,6.38916667 188.734167,5.70666667 L188.699167,5.70666667 C188.524167,6.40666667 188.331667,7.12416667 188.104167,7.84166667 L186.949167,11.2541667 Z M195.436667,16.1541667 L195.436667,4.49916667 C196.171667,4.37666667 197.134167,4.27166667 198.359167,4.27166667 C199.864167,4.27166667 200.966667,4.62166667 201.666667,5.25166667 C202.314167,5.81166667 202.699167,6.66916667 202.699167,7.71916667 C202.699167,8.78666667 202.384167,9.62666667 201.789167,10.2391667 C200.984167,11.0966667 199.671667,11.5341667 198.184167,11.5341667 C197.729167,11.5341667 197.309167,11.5166667 196.959167,11.4291667 L196.959167,16.1541667 L195.436667,16.1541667 Z M196.959167,5.60166667 L196.959167,10.1866667 C197.291667,10.2741667 197.711667,10.3091667 198.219167,10.3091667 C200.056667,10.3091667 201.176667,9.41666667 201.176667,7.78916667 C201.176667,6.23166667 200.074167,5.47916667 198.394167,5.47916667 C197.729167,5.47916667 197.221667,5.53166667 196.959167,5.60166667 Z M204.746667,4.35916667 L206.269167,4.35916667 L206.269167,16.1541667 L204.746667,16.1541667 L204.746667,4.35916667 Z M212.639167,16.1191667 L212.639167,4.51666667 C213.566667,4.37666667 214.669167,4.27166667 215.876667,4.27166667 C218.064167,4.27166667 219.621667,4.77916667 220.654167,5.74166667 C221.704167,6.70416667 222.316667,8.06916667 222.316667,9.97666667 C222.316667,11.9016667 221.721667,13.4766667 220.619167,14.5616667 C219.516667,15.6641667 217.696667,16.2591667 215.404167,16.2591667 C214.319167,16.2591667 213.409167,16.2066667 212.639167,16.1191667 Z M214.161667,5.63666667 L214.161667,14.9466667 C214.546667,15.0166667 215.106667,15.0341667 215.701667,15.0341667 C218.956667,15.0341667 220.724167,13.2141667 220.724167,10.0291667 C220.741667,7.24666667 219.166667,5.47916667 215.946667,5.47916667 C215.159167,5.47916667 214.564167,5.54916667 214.161667,5.63666667 Z M230.139167,12.4441667 L225.956667,12.4441667 L224.731667,16.1541667 L223.156667,16.1541667 L227.164167,4.35916667 L229.001667,4.35916667 L233.026667,16.1541667 L231.399167,16.1541667 L230.139167,12.4441667 Z M226.271667,11.2541667 L229.824167,11.2541667 L228.669167,7.85916667 C228.406667,7.08916667 228.231667,6.38916667 228.056667,5.70666667 L228.021667,5.70666667 C227.846667,6.40666667 227.654167,7.12416667 227.426667,7.84166667 L226.271667,11.2541667 Z M235.651667,16.1541667 L235.651667,5.65416667 L232.064167,5.65416667 L232.064167,4.35916667 L240.796667,4.35916667 L240.796667,5.65416667 L237.191667,5.65416667 L237.191667,16.1541667 L235.651667,16.1541667 Z M246.886667,12.4441667 L242.704167,12.4441667 L241.479167,16.1541667 L239.904167,16.1541667 L243.911667,4.35916667 L245.749167,4.35916667 L249.774167,16.1541667 L248.146667,16.1541667 L246.886667,12.4441667 Z M243.019167,11.2541667 L246.571667,11.2541667 L245.416667,7.85916667 C245.154167,7.08916667 244.979167,6.38916667 244.804167,5.70666667 L244.769167,5.70666667 C244.594167,6.40666667 244.401667,7.12416667 244.174167,7.84166667 L243.019167,11.2541667 Z M255.216667,16.1191667 L255.216667,4.51666667 C256.144167,4.37666667 257.246667,4.27166667 258.454167,4.27166667 C260.641667,4.27166667 262.199167,4.77916667 263.231667,5.74166667 C264.281667,6.70416667 264.894167,8.06916667 264.894167,9.97666667 C264.894167,11.9016667 264.299167,13.4766667 263.196667,14.5616667 C262.094167,15.6641667 260.274167,16.2591667 257.981667,16.2591667 C256.896667,16.2591667 255.986667,16.2066667 255.216667,16.1191667 Z M256.739167,5.63666667 L256.739167,14.9466667 C257.124167,15.0166667 257.684167,15.0341667 258.279167,15.0341667 C261.534167,15.0341667 263.301667,13.2141667 263.301667,10.0291667 C263.319167,7.24666667 261.744167,5.47916667 258.524167,5.47916667 C257.736667,5.47916667 257.141667,5.54916667 256.739167,5.63666667 Z M272.979167,9.36416667 L272.979167,10.6241667 L268.394167,10.6241667 L268.394167,14.8766667 L273.504167,14.8766667 L273.504167,16.1541667 L266.871667,16.1541667 L266.871667,4.35916667 L273.241667,4.35916667 L273.241667,5.63666667 L268.394167,5.63666667 L268.394167,9.36416667 L272.979167,9.36416667 Z M285.719167,16.1541667 L285.421667,10.9741667 C285.334167,9.32916667 285.229167,7.35166667 285.246667,5.88166667 L285.194167,5.88166667 C284.791667,7.26416667 284.301667,8.73416667 283.706667,10.3616667 L281.624167,16.0841667 L280.469167,16.0841667 L278.561667,10.4666667 C278.001667,8.80416667 277.529167,7.28166667 277.196667,5.88166667 L277.161667,5.88166667 C277.126667,7.35166667 277.039167,9.32916667 276.934167,11.0966667 L276.619167,16.1541667 L275.166667,16.1541667 L275.989167,4.35916667 L277.931667,4.35916667 L279.944167,10.0641667 C280.434167,11.5166667 280.836667,12.8116667 281.134167,14.0366667 L281.186667,14.0366667 C281.484167,12.8466667 281.904167,11.5516667 282.429167,10.0641667 L284.529167,4.35916667 L286.471667,4.35916667 L287.206667,16.1541667 L285.719167,16.1541667 Z M294.329167,4.16666667 C297.549167,4.16666667 299.631667,6.63416667 299.631667,10.1341667 C299.631667,14.1941667 297.164167,16.3466667 294.154167,16.3466667 C291.039167,16.3466667 288.851667,13.9316667 288.851667,10.3616667 C288.851667,6.61666667 291.179167,4.16666667 294.329167,4.16666667 Z M294.259167,5.40916667 C291.739167,5.40916667 290.479167,7.73666667 290.479167,10.3266667 C290.479167,12.8466667 291.844167,15.1041667 294.241667,15.1041667 C296.656667,15.1041667 298.021667,12.8816667 298.021667,10.2041667 C298.021667,7.85916667 296.796667,5.40916667 294.259167,5.40916667 Z" id="REST-API-DATA-DEMO" fill="#FFFFFF"></path>
        </g>
        <g id="collpase" transform="translate(69.000000, 109.000000) scale(1, -1) translate(-69.000000, -109.000000) translate(60.000000, 100.000000)" fill-rule="nonzero">
            <rect id="Rectangle" fill="#D8D8D8" opacity="0" x="0" y="0" width="18" height="18"></rect>
            <polygon id="Path-2507" fill-opacity="0.9" fill="#333333" opacity="0.35" points="5 7.71069489 8.67447016 11.6516253 8.99928998 12 9.32371782 11.6512032 13 7.69878205 12.3503592 7 8.67407705 10.9524211 9.3233247 10.951999 5.64885454 7.01106857"></polygon>
        </g>
        <g id="expand" transform="translate(20.000000, 100.000000)" fill-rule="nonzero">
            <rect id="Rectangle" fill="#D8D8D8" opacity="0" x="0" y="0" width="18" height="18"></rect>
            <polygon id="Path-2507" fill-opacity="0.9" fill="#333333" opacity="0.35" points="5 7.71069489 8.67447016 11.6516253 8.99928998 12 9.32371782 11.6512032 13 7.69878205 12.3503592 7 8.67407705 10.9524211 9.3233247 10.951999 5.64885454 7.01106857"></polygon>
        </g>
        <g id="info" transform="translate(20.000000, 140.000000)">
            <rect id="Rectangle" fill="#D8D8D8" fill-rule="nonzero" opacity="0" x="0" y="0" width="18" height="18"></rect>
            <g id="bt_info" transform="translate(3.000000, 3.000000)" stroke="#3492ED">
                <g id="Group-4">
                    <g id="bt-more-copy" fill="#FFFFFF" stroke-width="0.75">
                        <path d="M11.625,6 C11.625,2.89339941 9.10659985,0.375 6,0.375 C2.8933985,0.375 0.375,2.8933985 0.375,6 C0.375,9.10659985 2.89339941,11.625 6,11.625 C9.10659893,11.625 11.625,9.10659893 11.625,6 Z" id="Stroke-4"></path>
                    </g>
                    <path d="M6.34550409,3.21276324 C6.34550409,3.08583866 6.30273666,2.98098949 6.21720053,2.89821259 C6.1316644,2.81543568 6.02543563,2.77404785 5.89851105,2.77404785 C5.77158646,2.77404785 5.6653577,2.81543568 5.57982156,2.89821259 C5.49428543,2.98098949 5.45151801,3.08583866 5.45151801,3.21276324 C5.45151801,3.33416937 5.49566502,3.43901854 5.58396039,3.5273139 C5.67225575,3.61560927 5.77710492,3.65975629 5.89851105,3.65975629 C6.02543563,3.65975629 6.1316644,3.61698886 6.21720053,3.53145273 C6.30273666,3.4459166 6.34550409,3.33968783 6.34550409,3.21276324 L6.34550409,3.21276324 Z M6.80905243,8.51873621 L6.80905243,8.43595972 C6.75386783,8.4249228 6.69730446,8.41802482 6.63936063,8.41526559 C6.58141679,8.41250636 6.52761261,8.40560839 6.47794647,8.39457147 C6.42828033,8.38353455 6.38551291,8.36559983 6.34964291,8.34076675 C6.31377292,8.31593368 6.29031982,8.27592545 6.2792829,8.22074084 L6.2792829,4.52063177 L6.229617,4.52063177 L5.1121344,4.88484833 L5.1121344,4.93451422 C5.18939284,4.96210652 5.26251134,4.9924576 5.3314921,5.02556836 C5.40047285,5.05867912 5.45979541,5.09178939 5.50946155,5.12490015 C5.54809077,5.15249245 5.57154387,5.18284352 5.57982156,5.21595428 C5.58809925,5.24906505 5.59223804,5.28769369 5.59223804,5.33184137 L5.59223804,8.17107495 C5.59223804,8.22074109 5.57430331,8.26212892 5.53843332,8.29523969 C5.50256333,8.32835045 5.45841631,8.35456274 5.40599094,8.37387735 C5.35356556,8.39319196 5.29424301,8.4069879 5.22802148,8.41526559 C5.16179996,8.42354328 5.09557943,8.43044126 5.02935791,8.43595972 L5.02935791,8.51873621 L6.80905243,8.51873621 Z" id="i" stroke-width="0.5" fill="#3492ED"></path>
                </g>
            </g>
        </g>
        <g id="close/remove" transform="translate(60.000000, 140.000000)" fill-rule="nonzero">
            <rect id="Rectangle-14-Copy-9" fill="#9F795C" opacity="0" x="0" y="0" width="18" height="18"></rect>
            <g id="cm-dropdown-copy-49" opacity="0.7" transform="translate(3.500000, 3.500000)" fill="#2F3133">
                <polygon id="Combined-Shape" transform="translate(5.656854, 5.656854) rotate(45.000000) translate(-5.656854, -5.656854) " points="5.21240956 6.10129879 5.21240956 9.21240991 5.21240956 9.65685435 6.10129844 9.65685435 6.10129844 9.21240991 6.10129844 6.10129879 9.21240956 6.10129879 9.656854 6.10129879 9.656854 5.21240991 9.21240956 5.21240991 6.10129844 5.21240991 6.10129844 2.10129879 6.10129844 1.65685435 5.21240956 1.65685435 5.21240956 2.10129879 5.21240956 5.21240991 2.10129844 5.21240991 1.656854 5.21240991 1.656854 6.10129879 2.10129844 6.10129879"></polygon>
            </g>
        </g>
        <g id="normal-attribute" transform="translate(20.000000, 180.000000)">
            <g id="attribute">
                <rect id="Rectangle-2961-Copy-12" fill="#00FFA0" opacity="0" x="0" y="0" width="18" height="18"></rect>
                <path d="M14.2928932,9 L9,3.70710678 L3.70710678,9 L9,14.2928932 L14.2928932,9 Z" id="attr" stroke="#3FB582" fill="#86D4B2"></path>
            </g>
        </g>
        <g id="back-copy-2" transform="translate(100.000000, 60.000000)">
            <rect id="Rectangle-8" fill-opacity="0" fill="#FFFFFF" x="0" y="0" width="18" height="18"></rect>
            <path d="M11.0699763,3.46912648 L6,9.000125 L11.0699666,14.5308824 C11.2973681,14.7789516 11.6828133,14.7957061 11.9308824,14.5683046 C11.9373867,14.5623422 11.9437608,14.5562392 11.95,14.55 L11.95,14.55 C12.2021889,14.2978111 12.2126316,13.8922705 11.973756,13.6274367 L7.8,9.000125 L11.9737675,4.37257367 C12.2126383,4.10773224 12.2021906,3.70219061 11.95,3.45 L11.95,3.45 C11.7120451,3.21204511 11.326244,3.21204511 11.0882891,3.45 C11.082047,3.45624209 11.0759413,3.46261909 11.0699763,3.46912648 Z" id="navi_back-copy" fill="#3B92ED"></path>
        </g>
        <g id="next-copy-2" transform="translate(140.000000, 60.000000)">
            <rect id="Rectangle-8" fill-opacity="0" fill="#FFFFFF" x="0" y="0" width="18" height="18"></rect>
            <path d="M11.0699763,3.46912648 L6,9.000125 L11.0699666,14.5308824 C11.2973681,14.7789516 11.6828133,14.7957061 11.9308824,14.5683046 C11.9373867,14.5623422 11.9437608,14.5562392 11.95,14.55 L11.95,14.55 C12.2021889,14.2978111 12.2126316,13.8922705 11.973756,13.6274367 L7.8,9.000125 L11.9737675,4.37257367 C12.2126383,4.10773224 12.2021906,3.70219061 11.95,3.45 L11.95,3.45 C11.7120451,3.21204511 11.326244,3.21204511 11.0882891,3.45 C11.082047,3.45624209 11.0759413,3.46261909 11.0699763,3.46912648 Z" id="navi_back-copy" fill="#3B92ED" transform="translate(9.200000, 9.000000) scale(-1, 1) translate(-9.200000, -9.000000) "></path>
        </g>
        <g id="close" transform="translate(100.000000, 100.000000)">
            <rect id="Rectangle-6-Copy" fill="#00FFA0" opacity="0" x="0" y="0" width="18" height="18"></rect>
            <g id="Group-15" stroke-width="1" transform="translate(8.656854, 9.656854) rotate(45.000000) translate(-8.656854, -9.656854) translate(4.656854, 5.656854)" fill="#2F3133" opacity="0.7">
                <path d="M3,3 L3,-8.43708266e-13 L5,-8.43830731e-13 L5,3 L8,3 L8,5 L5,5 L5,8 L3,8 L3,5 L8.31335001e-13,5 L8.31335001e-13,3 L3,3 Z" id="Combined-Shape"></path>
            </g>
        </g>
        <g id="search" opacity="0.4" transform="translate(140.000000, 100.000000)">
            <rect id="Rectangle-2961-Copy-12" fill="#00FFA0" opacity="0" x="0" y="0" width="18" height="18"></rect>
            <path d="M11.7826795,11.0826501 L15,14.2999705 L14.2999705,15 L11.0826501,11.7826795 C10.2293417,12.4809645 9.13857394,12.8999116 7.94995581,12.8999116 C5.2161707,12.8999116 3,10.6837409 3,7.94995581 C3,5.2161707 5.2161707,3 7.94995581,3 C10.6837409,3 12.8999116,5.2161707 12.8999116,7.94995581 C12.8999116,9.13857394 12.4809645,10.2293417 11.7826795,11.0826501 Z M7.94995581,11.9099204 C10.1369839,11.9099204 11.9099204,10.1369839 11.9099204,7.94995581 C11.9099204,5.76292772 10.1369839,3.98999116 7.94995581,3.98999116 C5.76292772,3.98999116 3.98999116,5.76292772 3.98999116,7.94995581 C3.98999116,10.1369839 5.76292772,11.9099204 7.94995581,11.9099204 Z" id="Icon---Search" fill="#2F3133"></path>
        </g>
        <g id="radio-select" transform="translate(100.000000, 140.000000)">
            <rect id="Rectangle-201" x="0" y="0" width="18" height="18"></rect>
            <circle id="Oval-223-Copy" fill="#3B92ED" fill-rule="nonzero" cx="9" cy="9" r="6"></circle>
            <path d="M9,11 C10.1045695,11 11,10.1045695 11,9 C11,7.8954305 10.1045695,7 9,7 C7.8954305,7 7,7.8954305 7,9 C7,10.1045695 7.8954305,11 9,11 Z" id="Oval-226" fill="#FFFFFF" fill-rule="nonzero"></path>
        </g>
        <g id="radio-unselect" transform="translate(140.000000, 140.000000)">
            <rect id="Rectangle-201" x="0" y="0" width="18" height="18"></rect>
            <path d="M9,15 C12.3137085,15 15,12.3137085 15,9 C15,5.6862915 12.3137085,3 9,3 C5.6862915,3 3,5.6862915 3,9 C3,12.3137085 5.6862915,15 9,15 Z" id="path-11" fill="#FFFFFF"></path>
            <path d="M9,14 C11.7614237,14 14,11.7614237 14,9 C14,6.23857626 11.7614237,4 9,4 C6.23857626,4 4,6.23857626 4,9 C4,11.7614237 6.23857626,14 9,14 Z M9,15 C5.68629151,15 3,12.3137085 3,9 C3,5.68629151 5.68629151,3 9,3 C12.3137085,3 15,5.68629151 15,9 C15,12.3137085 12.3137085,15 9,15 Z" id="Shape" fill-opacity="0.45" fill="#444649" fill-rule="nonzero"></path>
        </g>
        <g id="checkbox-deselect" transform="translate(60.000000, 60.000000)">
            <rect id="Rectangle" fill="#D8D8D8" fill-rule="nonzero" opacity="0" x="0" y="0" width="18" height="18"></rect>
            <g id="Checkbox-unselect" transform="translate(3.000000, 3.000000)" fill="#FFFFFF" stroke="#444649" stroke-opacity="0.45">
                <rect id="Rectangle-3087" x="0.5" y="0.5" width="11" height="11" rx="2"></rect>
            </g>
        </g>
        <g id="next-month-copy" transform="translate(220.000000, 60.000000)">
            <rect id="Rectangle-8" fill="#FFFFFF" opacity="0" x="0" y="0" width="18" height="18"></rect>
            <path d="M12.8199763,3.46912648 C12.8259413,3.46261909 12.832047,3.45624209 12.8382891,3.45 C13.076244,3.21204511 13.4620451,3.21204511 13.7,3.45 C13.9521906,3.70219061 13.9626383,4.10773224 13.7237675,4.37257367 L9.55,9.000125 L13.723756,13.6274367 C13.9626316,13.8922705 13.9521889,14.2978111 13.7,14.55 C13.6937608,14.5562392 13.6873867,14.5623422 13.6808824,14.5683046 C13.4328133,14.7957061 13.0473681,14.7789516 12.8199666,14.5308824 L7.75,9.000125 L12.8199763,3.46912648 Z M5.625,3 C5.97017797,3 6.25,3.27982203 6.25,3.625 L6.25,14.375 C6.25,14.720178 5.97017797,15 5.625,15 C5.27982203,15 5,14.720178 5,14.375 L5,3.625 C5,3.27982203 5.27982203,3 5.625,3 Z" id="Combined-Shape-Copy-3" fill="#3B92ED" transform="translate(9.448128, 9.000000) scale(-1, 1) translate(-9.448128, -9.000000) "></path>
        </g>
        <g id="last-month-copy" transform="translate(180.000000, 60.000000)">
            <rect id="Rectangle-8" fill="#FFFFFF" opacity="0" x="0" y="0" width="18" height="18"></rect>
            <path d="M11.8199763,3.46912648 C11.8259413,3.46261909 11.832047,3.45624209 11.8382891,3.45 C12.076244,3.21204511 12.4620451,3.21204511 12.7,3.45 C12.9521906,3.70219061 12.9626383,4.10773224 12.7237675,4.37257367 L8.55,9.000125 L12.723756,13.6274367 C12.9626316,13.8922705 12.9521889,14.2978111 12.7,14.55 C12.6937608,14.5562392 12.6873867,14.5623422 12.6808824,14.5683046 C12.4328133,14.7957061 12.0473681,14.7789516 11.8199666,14.5308824 L6.75,9.000125 L11.8199763,3.46912648 Z M4.625,3 C4.97017797,3 5.25,3.27982203 5.25,3.625 L5.25,14.375 C5.25,14.720178 4.97017797,15 4.625,15 C4.27982203,15 4,14.720178 4,14.375 L4,3.625 C4,3.27982203 4.27982203,3 4.625,3 Z" id="Combined-Shape-Copy-3" fill="#3B92ED"></path>
        </g>
    </g>
</svg>